<svg width="41" height="64" viewBox="0 0 41 64" fill="none" xmlns="http://www.w3.org/2000/svg">
<path d="M32.7498 0H8.58109C4.1903 0 0.630859 3.58172 0.630859 8V56C0.630859 60.4183 4.1903 64 8.58109 64H32.7498C37.1406 64 40.7 60.4183 40.7 56V8C40.7 3.58172 37.1406 0 32.7498 0Z" fill="#50D9D7"/>
<path d="M37.7188 9V54C37.7188 55.5913 37.0905 57.1174 35.9723 58.2426C34.8541 59.3679 33.3375 60 31.7561 60H9.89287C8.31146 60 6.79483 59.3679 5.67661 58.2426C4.55839 57.1174 3.93018 55.5913 3.93018 54V9C3.93018 7.4087 4.55839 5.88258 5.67661 4.75736C6.79483 3.63214 8.31146 3 9.89287 3H13.1624C13.369 3.00154 13.5701 3.06787 13.7375 3.18975C13.9049 3.31163 14.0304 3.48299 14.0966 3.68L14.4046 4.63C14.5363 5.02911 14.7896 5.37631 15.1286 5.62226C15.4675 5.86821 15.8749 6.00038 16.2928 6H25.3561C25.774 6.00038 26.1814 5.86821 26.5204 5.62226C26.8593 5.37631 27.1127 5.02911 27.2443 4.63L27.5524 3.69C27.6173 3.48951 27.7436 3.31482 27.9132 3.1909C28.0827 3.06697 28.2869 3.00016 28.4965 3H31.7561C33.3375 3 34.8541 3.63214 35.9723 4.75736C37.0905 5.88258 37.7188 7.4087 37.7188 9Z" fill="white"/>
<path d="M37.7188 9V54C37.7188 55.5913 37.0905 57.1174 35.9723 58.2426C34.8541 59.3679 33.3375 60 31.7561 60H9.89287C8.31146 60 6.79483 59.3679 5.67661 58.2426C4.55839 57.1174 3.93018 55.5913 3.93018 54V9C3.93018 7.4087 4.55839 5.88258 5.67661 4.75736C6.79483 3.63214 8.31146 3 9.89287 3H13.1624C13.369 3.00154 13.5701 3.06787 13.7375 3.18975C13.9049 3.31163 14.0304 3.48299 14.0966 3.68L14.4046 4.63C14.5363 5.02911 14.7896 5.37631 15.1286 5.62226C15.4675 5.86821 15.8749 6.00038 16.2928 6H25.3561C25.774 6.00038 26.1814 5.86821 26.5204 5.62226C26.8593 5.37631 27.1127 5.02911 27.2443 4.63L27.5524 3.69C27.6173 3.48951 27.7436 3.31482 27.9132 3.1909C28.0827 3.06697 28.2869 3.00016 28.4965 3H31.7561C33.3375 3 34.8541 3.63214 35.9723 4.75736C37.0905 5.88258 37.7188 7.4087 37.7188 9Z" fill="white"/>
<path d="M35.7309 57V58.4901C34.6385 59.4733 33.2213 60.0116 31.7558 60.0001H9.8926C8.42309 60.0034 7.00536 59.4542 5.91748 58.4601V57C5.91748 56.4696 6.12688 55.9609 6.49962 55.5858C6.87236 55.2108 7.37791 55 7.90504 55C8.30031 54.9929 8.68448 54.8673 9.00843 54.6393C9.33238 54.4112 9.5814 54.0912 9.72366 53.72C9.80316 53.51 9.8926 53.31 9.98204 53.11C10.1433 52.744 10.1915 52.3376 10.1207 51.9436C10.0498 51.5496 9.86303 51.186 9.58453 50.9C9.22629 50.5271 9.02605 50.0287 9.02605 49.51C9.02605 48.9913 9.22629 48.493 9.58453 48.12L11.0354 46.66C11.4061 46.2995 11.9014 46.098 12.4168 46.098C12.9323 46.098 13.4275 46.2995 13.7982 46.66C14.0824 46.9403 14.4437 47.1282 14.8352 47.1995C15.2268 47.2708 15.6306 47.2222 15.9944 47.06L16.6006 46.8C16.9593 46.6542 17.2679 46.4062 17.4885 46.0865C17.7092 45.7667 17.8323 45.3891 17.8428 45C17.8428 44.4696 18.0522 43.9609 18.425 43.5858C18.7977 43.2107 19.3033 43 19.8304 43H21.818C22.3451 43 22.8506 43.2107 23.2234 43.5858C23.5961 43.9609 23.8055 44.4696 23.8055 45C23.8127 45.3978 23.9375 45.7843 24.1641 46.1103C24.3907 46.4363 24.7087 46.6869 25.0776 46.83L25.6838 47.09C26.0476 47.2522 26.4514 47.3008 26.843 47.2295C27.2345 47.1582 27.5958 46.9703 27.88 46.69C28.2506 46.3295 28.7459 46.128 29.2614 46.128C29.7768 46.128 30.2721 46.3295 30.6427 46.69L32.0937 48.15C32.4519 48.523 32.6521 49.0213 32.6521 49.54C32.6521 50.0587 32.4519 50.5571 32.0937 50.93C31.8152 51.216 31.6284 51.5796 31.5575 51.9736C31.4866 52.3676 31.5349 52.7739 31.6961 53.14C31.7856 53.34 31.875 53.54 31.9545 53.75C32.0995 54.111 32.3459 54.4215 32.6636 54.6435C32.9814 54.8656 33.3566 54.9895 33.7433 55C34.2705 55 34.776 55.2108 35.1488 55.5858C35.5215 55.9609 35.7309 56.4696 35.7309 57Z" fill="#00BEBD"/>
<path d="M28.526 60H13.1225C12.8218 58.8185 12.7936 57.5835 13.04 56.3894C13.2864 55.1953 13.8008 54.0737 14.544 53.1103C15.2871 52.1469 16.2393 51.3672 17.3278 50.8308C18.4163 50.2945 19.6123 50.0156 20.8242 50.0156C22.0362 50.0156 23.2322 50.2945 24.3207 50.8308C25.4092 51.3672 26.3614 52.1469 27.1045 53.1103C27.8477 54.0737 28.3621 55.1953 28.6085 56.3894C28.8549 57.5835 28.8266 58.8185 28.526 60Z" fill="#93E6E5"/>
<path d="M24.7991 23.8401V31.3801C24.8004 31.5665 24.7499 31.7495 24.6533 31.9085C24.5568 32.0675 24.4179 32.1962 24.2525 32.2801L21.2712 33.7801C21.1325 33.8504 20.9793 33.8871 20.824 33.8871C20.6687 33.8871 20.5155 33.8504 20.3768 33.7801L17.3955 32.2801C17.2301 32.1962 17.0913 32.0675 16.9947 31.9085C16.8981 31.7495 16.8476 31.5665 16.8489 31.3801V23.8401C15.0797 24.6198 13.5746 25.9014 12.5177 27.5282C11.4608 29.155 10.8979 31.0565 10.8979 33.0001C10.8979 34.9437 11.4608 36.8451 12.5177 38.4719C13.5746 40.0987 15.0797 41.3804 16.8489 42.1601V60.0001H24.7991V42.1601C26.5684 41.3804 28.0734 40.0987 29.1303 38.4719C30.1872 36.8451 30.7501 34.9437 30.7501 33.0001C30.7501 31.0565 30.1872 29.155 29.1303 27.5282C28.0734 25.9014 26.5684 24.6198 24.7991 23.8401Z" fill="#FFAC00"/>
<path d="M16.8489 12H6.91113V14H16.8489V12Z" fill="#D9D9D9"/>
<path d="M20.8241 16H6.91113V18H20.8241V16Z" fill="#D9D9D9"/>
</svg>
