<svg width="65" height="48" viewBox="0 0 65 48" fill="none" xmlns="http://www.w3.org/2000/svg">
<path d="M62.2054 3V42H2.57861V3C2.57861 2.20435 2.89272 1.44129 3.45183 0.878679C4.01094 0.31607 4.76925 0 5.55995 0H59.224C60.0147 0 60.7731 0.31607 61.3322 0.878679C61.8913 1.44129 62.2054 2.20435 62.2054 3Z" fill="#50D9D7"/>
<path d="M1.5846 42H63.199C63.4626 42 63.7154 42.1054 63.9017 42.2929C64.0881 42.4804 64.1928 42.7348 64.1928 43V45C64.1928 45.7956 63.8787 46.5587 63.3196 47.1213C62.7605 47.6839 62.0022 48 61.2115 48H3.57216C2.78146 48 2.02315 47.6839 1.46404 47.1213C0.904925 46.5587 0.59082 45.7956 0.59082 45L0.59082 43C0.59082 42.7348 0.695522 42.4804 0.881892 42.2929C1.06826 42.1054 1.32103 42 1.5846 42Z" fill="#00BEBD"/>
<path d="M60.2175 3V7H20.4663L16.4912 2H59.2237C59.4873 2 59.7401 2.10536 59.9265 2.29289C60.1128 2.48043 60.2175 2.73478 60.2175 3Z" fill="#93E6E5"/>
<path d="M60.2177 7V40H4.56592V3C4.56592 2.73478 4.67062 2.48043 4.85699 2.29289C5.04336 2.10536 5.29613 2 5.5597 2H19.5521C20.1476 2.00037 20.7354 2.13536 21.2721 2.39499C21.8087 2.65462 22.2806 3.03225 22.6527 3.5C23.6465 4.8 23.3186 4.34 24.2428 5.5C24.6149 5.96775 25.0868 6.34538 25.6235 6.60501C26.1601 6.86464 26.7479 6.99963 27.3434 7H60.2177Z" fill="white"/>
<path d="M39.3483 44H25.4353C24.9082 44 24.4026 43.7893 24.0299 43.4142C23.6572 43.0391 23.4478 42.5304 23.4478 42H41.3359C41.3359 42.5304 41.1265 43.0391 40.7537 43.4142C40.381 43.7893 39.8754 44 39.3483 44Z" fill="#F3F3F3"/>
<path d="M24.4414 10H10.5286C9.43087 10 8.54102 10.8954 8.54102 12V34C8.54102 35.1046 9.43087 36 10.5286 36H24.4414C25.5391 36 26.429 35.1046 26.429 34V12C26.429 10.8954 25.5391 10 24.4414 10Z" fill="#FFAC00"/>
<path d="M13.5098 20V22H15.4973V32H19.4725V20H13.5098Z" fill="white"/>
<path d="M17.4851 18C18.5828 18 19.4727 17.1046 19.4727 16C19.4727 14.8954 18.5828 14 17.4851 14C16.3874 14 15.4976 14.8954 15.4976 16C15.4976 17.1046 16.3874 18 17.4851 18Z" fill="white"/>
<path d="M20.4664 6C21.0153 6 21.4602 5.55228 21.4602 5C21.4602 4.44772 21.0153 4 20.4664 4C19.9176 4 19.4727 4.44772 19.4727 5C19.4727 5.55228 19.9176 6 20.4664 6Z" fill="#00BEBD"/>
<path d="M56.2424 10H38.3545V12H56.2424V10Z" fill="#D9D9D9"/>
<path d="M56.2425 14H30.4043V16H56.2425V14Z" fill="#D9D9D9"/>
<path d="M56.2425 18H30.4043V20H56.2425V18Z" fill="#D9D9D9"/>
<path d="M56.2425 22H30.4043V24H56.2425V22Z" fill="#D9D9D9"/>
<path d="M56.2425 26H30.4043V28H56.2425V26Z" fill="#D9D9D9"/>
<path d="M56.2425 30H30.4043V32H56.2425V30Z" fill="#D9D9D9"/>
<path d="M46.3047 34H30.4043V36H46.3047V34Z" fill="#D9D9D9"/>
</svg>
