<svg width="35" height="35" viewBox="0 0 35 35" fill="none" xmlns="http://www.w3.org/2000/svg">
<g clip-path="url(#clip0_307_5341)">
<path d="M17.4853 2.91666C9.43525 2.91666 2.9165 9.44999 2.9165 17.5C2.9165 25.55 9.43525 32.0833 17.4853 32.0833C25.5498 32.0833 32.0832 25.55 32.0832 17.5C32.0832 9.44999 25.5498 2.91666 17.4853 2.91666ZM27.5915 11.6667H23.2894C22.8228 9.84374 22.1519 8.09374 21.2769 6.47499C23.9603 7.39374 26.1915 9.26041 27.5915 11.6667ZM17.4998 5.89166C18.7103 7.64166 19.6582 9.58124 20.2853 11.6667H14.7144C15.3415 9.58124 16.2894 7.64166 17.4998 5.89166ZM6.21234 20.4167C5.979 19.4833 5.83317 18.5062 5.83317 17.5C5.83317 16.4937 5.979 15.5167 6.21234 14.5833H11.1415C11.0248 15.5458 10.9373 16.5083 10.9373 17.5C10.9373 18.4917 11.0248 19.4542 11.1415 20.4167H6.21234ZM7.40817 23.3333H11.7103C12.1769 25.1562 12.8478 26.9062 13.7228 28.525C11.0394 27.6062 8.80817 25.7542 7.40817 23.3333ZM11.7103 11.6667H7.40817C8.80817 9.24582 11.0394 7.39374 13.7228 6.47499C12.8478 8.09374 12.1769 9.84374 11.7103 11.6667ZM17.4998 29.1083C16.2894 27.3583 15.3415 25.4187 14.7144 23.3333H20.2853C19.6582 25.4187 18.7103 27.3583 17.4998 29.1083ZM20.9123 20.4167H14.0873C13.9561 19.4542 13.854 18.4917 13.854 17.5C13.854 16.5083 13.9561 15.5312 14.0873 14.5833H20.9123C21.0436 15.5312 21.1457 16.5083 21.1457 17.5C21.1457 18.4917 21.0436 19.4542 20.9123 20.4167ZM21.2769 28.525C22.1519 26.9062 22.8228 25.1562 23.2894 23.3333H27.5915C26.1915 25.7396 23.9603 27.6062 21.2769 28.525ZM23.8582 20.4167C23.9748 19.4542 24.0623 18.4917 24.0623 17.5C24.0623 16.5083 23.9748 15.5458 23.8582 14.5833H28.7873C29.0207 15.5167 29.1665 16.4937 29.1665 17.5C29.1665 18.5062 29.0207 19.4833 28.7873 20.4167H23.8582Z" fill="#23D4CE"/>
</g>
<defs>
<clipPath id="clip0_307_5341">
<rect width="35" height="35" fill="white"/>
</clipPath>
</defs>
</svg>
