<svg width="60" height="60" viewBox="0 0 60 60" fill="none" xmlns="http://www.w3.org/2000/svg">
<path d="M54.375 22.5V54.375C54.375 54.8723 54.1775 55.3492 53.8258 55.7008C53.4742 56.0525 52.9973 56.25 52.5 56.25H1.875C1.37772 56.25 0.900806 56.0525 0.549175 55.7008C0.197544 55.3492 0 54.8723 0 54.375V22.5H54.375Z" fill="#50D9D7"/>
<path d="M54.375 22.5L27.1875 43.125L0 22.5L27.1875 1.875L54.375 22.5Z" fill="#00AAA8"/>
<path d="M48.75 1.875V26.7656L27.1875 43.125L5.625 26.7656V1.875C5.625 1.37772 5.82254 0.900806 6.17417 0.549175C6.52581 0.197544 7.00272 0 7.5 0L46.875 0C47.3723 0 47.8492 0.197544 48.2008 0.549175C48.5525 0.900806 48.75 1.37772 48.75 1.875Z" fill="#F3F3F3"/>
<path d="M53.7277 55.7813C53.3916 56.086 52.9533 56.2533 52.4996 56.25H1.87461C1.42094 56.2533 0.982616 56.086 0.646484 55.7813L25.0215 38.1563C25.662 37.6913 26.4331 37.4409 27.2246 37.4409C28.0161 37.4409 28.7873 37.6913 29.4277 38.1563C48.7496 52.1438 32.5496 40.4344 53.7277 55.7813Z" fill="#00BEBD"/>
<path d="M54.3752 36.8906V54.375C54.3737 54.6419 54.3152 54.9055 54.2036 55.148C54.0921 55.3905 53.93 55.6064 53.7283 55.7812L36.7314 43.4719C37.4374 41.8641 38.4588 40.4143 39.7351 39.2084C41.0115 38.0025 42.5168 37.0649 44.162 36.4512C45.8072 35.8376 47.5588 35.5603 49.3131 35.6357C51.0674 35.7112 52.7888 36.1379 54.3752 36.8906Z" fill="#00BEBD"/>
<path d="M53.7279 55.7812C53.3918 56.0859 52.9534 56.2532 52.4998 56.25H37.9873C36.701 54.406 35.9099 52.2625 35.6899 50.025C35.47 47.7875 35.8284 45.531 36.731 43.4719L53.7279 55.7812Z" fill="#00AAA8"/>
<path d="M48.75 60C54.9632 60 60 54.9632 60 48.75C60 42.5368 54.9632 37.5 48.75 37.5C42.5368 37.5 37.5 42.5368 37.5 48.75C37.5 54.9632 42.5368 60 48.75 60Z" fill="#EA9706"/>
<path d="M48.75 57.1875C53.4099 57.1875 57.1875 53.4099 57.1875 48.75C57.1875 44.0901 53.4099 40.3125 48.75 40.3125C44.0901 40.3125 40.3125 44.0901 40.3125 48.75C40.3125 53.4099 44.0901 57.1875 48.75 57.1875Z" fill="#FFAC00"/>
<path d="M24.375 3.75H11.25C10.2145 3.75 9.375 4.58947 9.375 5.625V24.375C9.375 25.4105 10.2145 26.25 11.25 26.25H24.375C25.4105 26.25 26.25 25.4105 26.25 24.375V5.625C26.25 4.58947 25.4105 3.75 24.375 3.75Z" fill="#FFAC00"/>
<path d="M14.0625 12.1875V14.0625H15.9375V23.4375H19.6875V12.1875H14.0625Z" fill="white"/>
<path d="M17.8125 10.3125C18.848 10.3125 19.6875 9.47303 19.6875 8.4375C19.6875 7.40197 18.848 6.5625 17.8125 6.5625C16.777 6.5625 15.9375 7.40197 15.9375 8.4375C15.9375 9.47303 16.777 10.3125 17.8125 10.3125Z" fill="white"/>
<path d="M45 3.75H33.75V5.625H45V3.75Z" fill="#D9D9D9"/>
<path d="M45 7.5H30V9.375H45V7.5Z" fill="#D9D9D9"/>
<path d="M45 11.25H30V13.125H45V11.25Z" fill="#D9D9D9"/>
<path d="M45 15H30V16.875H45V15Z" fill="#D9D9D9"/>
<path d="M45 18.75H30V20.625H45V18.75Z" fill="#D9D9D9"/>
<path d="M39.375 22.5H30V24.375H39.375V22.5Z" fill="#D9D9D9"/>
<path d="M48.7499 53.4375C48.5013 53.4375 48.2628 53.3387 48.087 53.1629C47.9112 52.9871 47.8124 52.7487 47.8124 52.5V47.2594L47.5406 47.5406C47.364 47.7172 47.1246 47.8164 46.8749 47.8164C46.6253 47.8164 46.3858 47.7172 46.2093 47.5406C46.0328 47.3641 45.9336 47.1247 45.9336 46.875C45.9336 46.6254 46.0328 46.3859 46.2093 46.2094L48.0843 44.3344C48.2154 44.2022 48.383 44.112 48.5655 44.0754C48.7481 44.0388 48.9375 44.0573 49.1094 44.1287C49.2814 44.2001 49.4282 44.3211 49.5312 44.4763C49.6341 44.6315 49.6885 44.8138 49.6874 45V52.5C49.6874 52.7487 49.5887 52.9871 49.4128 53.1629C49.237 53.3387 48.9986 53.4375 48.7499 53.4375Z" fill="white"/>
</svg>
