<svg width="62" height="64" viewBox="0 0 62 64" fill="none" xmlns="http://www.w3.org/2000/svg">
<path d="M58.2744 14.0826L54.0581 9.83997L47.7336 16.2039L51.95 20.4465L58.2744 14.0826Z" fill="#00AAA8"/>
<path d="M58.2692 16.91L51.2432 9.84003C51.0579 9.65421 50.9108 9.43348 50.8102 9.19045C50.7097 8.94741 50.6577 8.68683 50.6572 8.42358C50.6563 7.89192 50.8653 7.38166 51.2382 7.00505C51.6112 6.62845 52.1175 6.41635 52.6459 6.41541C53.1742 6.41447 53.6813 6.62477 54.0556 7.00005L61.0915 14.08C61.2762 14.2658 61.4226 14.4864 61.5226 14.7292C61.6225 14.972 61.674 15.2322 61.674 15.495C61.674 15.7578 61.6225 16.018 61.5226 16.2608C61.4226 16.5036 61.2762 16.7242 61.0915 16.91C60.9068 17.0958 60.6876 17.2432 60.4463 17.3438C60.205 17.4443 59.9465 17.4961 59.6853 17.4961C59.4241 17.4961 59.1655 17.4443 58.9243 17.3438C58.683 17.2432 58.4638 17.0958 58.2791 16.91H58.2692Z" fill="#FFAC00"/>
<path d="M35.2528 2H29.29V11H35.2528V2Z" fill="#00AAA8"/>
<path d="M60.0977 36C60.0977 41.5379 58.4657 46.9514 55.4081 51.556C52.3506 56.1605 48.0048 59.7494 42.9203 61.8686C37.8357 63.9879 32.2409 64.5424 26.8432 63.462C21.4455 62.3816 16.4874 59.7148 12.5958 55.799C8.70431 51.8831 6.05415 46.894 4.98048 41.4625C3.90681 36.0311 4.45786 30.4012 6.56394 25.2849C8.67001 20.1685 12.2365 15.7955 16.8125 12.7189C21.3884 9.64217 26.7683 8 32.2717 8C39.6516 8 46.7293 10.95 51.9476 16.201C57.166 21.452 60.0977 28.5739 60.0977 36Z" fill="#00BEBD"/>
<path d="M12.5851 29C11.1086 33.2024 10.9992 37.7686 12.2728 42.0377C13.5463 46.3068 16.1368 50.0575 19.6692 52.7468C23.2017 55.4362 27.493 56.9248 31.922 56.9972C36.351 57.0696 40.688 55.7221 44.3055 53.1496C47.9229 50.5771 50.6331 46.9131 52.0438 42.6879C53.4545 38.4626 53.4925 33.8953 52.1524 29.6469C50.8123 25.3984 48.1636 21.6892 44.5896 19.056C41.0155 16.4229 36.7015 15.0023 32.2719 15C27.9544 14.9977 23.7424 16.343 20.2165 18.8504C16.6906 21.3578 14.0243 24.9039 12.5851 29Z" fill="#93E6E5"/>
<path d="M12.5851 29C11.1086 33.2024 10.9992 37.7686 12.2728 42.0377C13.5463 46.3068 16.1368 50.0575 19.6692 52.7468C23.2017 55.4362 27.493 56.9248 31.922 56.9972C36.351 57.0696 40.688 55.7221 44.3055 53.1496C47.9229 50.5771 50.6331 46.9131 52.0438 42.6879C53.4545 38.4626 53.4925 33.8953 52.1524 29.6469C50.8123 25.3984 48.1636 21.6892 44.5896 19.056C41.0155 16.4229 36.7015 15.0023 32.2719 15C27.9544 14.9977 23.7424 16.343 20.2165 18.8504C16.6906 21.3578 14.0243 24.9039 12.5851 29Z" fill="#50D9D7"/>
<path d="M49.166 36C49.166 39.3623 48.1752 42.6491 46.3188 45.4447C44.4624 48.2403 41.8239 50.4193 38.7369 51.7059C35.6499 52.9926 32.253 53.3293 28.9758 52.6733C25.6987 52.0174 22.6884 50.3983 20.3257 48.0208C17.963 45.6433 16.3539 42.6142 15.7021 39.3165C15.0502 36.0189 15.3848 32.6007 16.6634 29.4944C17.9421 26.388 20.1075 23.733 22.8858 21.865C25.664 19.997 28.9304 19 32.2717 19C36.7524 19 41.0495 20.7911 44.2178 23.9792C47.3861 27.1673 49.166 31.4913 49.166 36Z" fill="#93E6E5"/>
<path d="M30.2839 42H24.321C24.0574 42 23.8046 41.8946 23.6182 41.7071C23.4319 41.5196 23.3272 41.2652 23.3272 41C23.325 40.2129 23.5416 39.4409 23.9525 38.7711C24.3635 38.1014 24.9524 37.5607 25.6527 37.21L28.1372 36C28.4326 35.8527 28.6889 35.6367 28.8849 35.37C29.0809 35.1032 29.211 34.7934 29.2644 34.4661C29.3178 34.1387 29.293 33.8033 29.192 33.4875C29.0911 33.1717 28.9169 32.8846 28.6838 32.65C28.4144 32.3852 28.0757 32.2029 27.7072 32.1244C27.3388 32.0458 26.9557 32.0742 26.6027 32.2062C26.2496 32.3383 25.9412 32.5685 25.7131 32.8701C25.4851 33.1718 25.347 33.5324 25.3148 33.91C25.3148 34.1752 25.2101 34.4296 25.0237 34.6171C24.8373 34.8046 24.5846 34.91 24.321 34.91C24.0574 34.91 23.8046 34.8046 23.6182 34.6171C23.4319 34.4296 23.3272 34.1752 23.3272 33.91C23.3381 33.1271 23.5771 32.3646 24.0147 31.7171C24.4522 31.0696 25.0689 30.5656 25.7885 30.2675C26.508 29.9694 27.2987 29.8903 28.0624 30.04C28.8262 30.1898 29.5295 30.5618 30.0851 31.11C30.5406 31.5681 30.8814 32.1284 31.0794 32.745C31.2775 33.3615 31.3271 34.0166 31.2243 34.6563C31.1214 35.2959 30.8689 35.9018 30.4877 36.424C30.1065 36.9463 29.6075 37.3699 29.0317 37.66C26.2391 39.06 25.9508 39.1 25.5434 39.91H30.2839C30.5475 39.91 30.8003 40.0154 30.9866 40.2029C31.173 40.3904 31.2777 40.6448 31.2777 40.91C31.2777 41.1752 31.173 41.4296 30.9866 41.6171C30.8003 41.8046 30.5475 41.91 30.2839 41.91V42Z" fill="white"/>
<path d="M54.1345 36C54.1326 39.0654 53.4941 42.0965 52.2599 44.899C51.0257 47.7016 49.2232 50.2136 46.9678 52.2742C44.7124 54.3347 42.054 55.8983 39.163 56.8645C36.272 57.8308 33.2122 58.1784 30.1799 57.8852C27.1476 57.592 24.2096 56.6643 21.5544 55.1617C18.8992 53.6591 16.5853 51.6148 14.7612 49.1597C12.9371 46.7047 11.6429 43.8932 10.9618 40.9054C10.2806 37.9177 10.2275 34.8196 10.8057 31.81C10.8558 31.5448 11.0085 31.3105 11.2303 31.1586C11.4521 31.0067 11.7247 30.9496 11.9883 31C12.2519 31.0504 12.4848 31.2041 12.6357 31.4273C12.7867 31.6504 12.8433 31.9248 12.7933 32.19C12.0132 36.235 12.4938 40.4237 14.1693 44.1834C15.8448 47.9432 18.6334 51.0904 22.1539 53.1948C25.6744 55.2992 29.7549 56.2581 33.8375 55.9404C37.9202 55.6227 41.8056 54.0438 44.9627 51.4197C48.1197 48.7956 50.3943 45.2543 51.4753 41.2801C52.5564 37.3058 52.3912 33.0925 51.0023 29.2163C49.6134 25.3402 47.0686 21.9902 43.7159 19.6246C40.3632 17.259 36.3662 15.9931 32.2713 16C29.1834 15.9867 26.1356 16.7037 23.3737 18.0934C20.6118 19.483 18.213 21.5062 16.3709 24H19.3522C19.6158 24 19.8686 24.1054 20.0549 24.2929C20.2413 24.4804 20.346 24.7348 20.346 25C20.346 25.2652 20.2413 25.5196 20.0549 25.7071C19.8686 25.8947 19.6158 26 19.3522 26H14.3833C14.1197 26 13.867 25.8947 13.6806 25.7071C13.4942 25.5196 13.3895 25.2652 13.3895 25V20C13.3895 19.7348 13.4942 19.4805 13.6806 19.2929C13.867 19.1054 14.1197 19 14.3833 19C14.6469 19 14.8997 19.1054 15.086 19.2929C15.2724 19.4805 15.3771 19.7348 15.3771 20V22C18.2393 18.4937 22.1089 15.9638 26.4558 14.7568C30.8026 13.5498 35.414 13.7249 39.6582 15.258C43.9023 16.791 47.5715 19.6071 50.1631 23.3204C52.7547 27.0337 54.1418 31.4625 54.1345 36Z" fill="white"/>
<path d="M40.2217 39H34.2591C34.095 38.9999 33.9336 38.9589 33.7891 38.8807C33.6447 38.8025 33.5217 38.6896 33.4312 38.5519C33.3407 38.4143 33.2854 38.2562 33.2703 38.0919C33.2552 37.9275 33.2808 37.762 33.3448 37.61L36.3261 30.61C36.3735 30.4842 36.4457 30.3692 36.5382 30.2721C36.6308 30.175 36.7419 30.0977 36.8649 30.0448C36.9879 29.9919 37.1202 29.9645 37.254 29.9644C37.3877 29.9642 37.5201 29.9911 37.6433 30.0437C37.7664 30.0962 37.8777 30.1732 37.9706 30.27C38.0635 30.3669 38.1359 30.4816 38.1837 30.6073C38.2314 30.733 38.2535 30.8672 38.2485 31.0017C38.2435 31.1361 38.2116 31.2682 38.1546 31.39L35.7696 37H40.2217C40.4852 37 40.738 37.1054 40.9244 37.2929C41.1108 37.4804 41.2155 37.7348 41.2155 38C41.2155 38.2652 41.1108 38.5196 40.9244 38.7071C40.738 38.8946 40.4852 39 40.2217 39Z" fill="white"/>
<path d="M40.2217 42C39.9582 42 39.7054 41.8946 39.5191 41.7071C39.3327 41.5196 39.228 41.2652 39.228 41V34C39.228 33.7348 39.3327 33.4804 39.5191 33.2929C39.7054 33.1054 39.9582 33 40.2217 33C40.4853 33 40.738 33.1054 40.9244 33.2929C41.1108 33.4804 41.2155 33.7348 41.2155 34V41C41.2155 41.2652 41.1108 41.5196 40.9244 41.7071C40.738 41.8946 40.4853 42 40.2217 42Z" fill="white"/>
<path d="M37.2407 4H27.303C26.7758 4 26.2703 3.78929 25.8976 3.41421C25.5248 3.03914 25.3154 2.53043 25.3154 2C25.3154 1.46957 25.5248 0.960859 25.8976 0.585786C26.2703 0.210714 26.7758 0 27.303 0L37.2407 0C37.7679 0 38.2734 0.210714 38.6461 0.585786C39.0189 0.960859 39.2283 1.46957 39.2283 2C39.2283 2.53043 39.0189 3.03914 38.6461 3.41421C38.2734 3.78929 37.7679 4 37.2407 4Z" fill="#FFAC00"/>
<path d="M23.8943 56.32C23.3766 58.2888 22.4064 60.1077 21.062 61.63C17.0069 59.8298 13.4366 57.0828 10.6471 53.6168C7.85773 50.1508 5.92955 46.0656 5.02246 41.7C6.78181 40.6795 8.75794 40.0967 10.7864 40C11.4476 43.6036 12.993 46.9839 15.2821 49.8339C17.5712 52.6839 20.5315 54.9135 23.8943 56.32Z" fill="#00AAA8"/>
<path d="M24.2518 54.3C21.3618 53.0115 18.8176 51.0501 16.8289 48.5777C14.8401 46.1053 13.4638 43.1927 12.8135 40.08C13.934 40.204 15.0333 40.4764 16.083 40.89C17.3727 45.1554 20.2687 48.7442 24.1524 50.89C24.3377 52.017 24.3711 53.164 24.2518 54.3Z" fill="#00BEBD"/>
<path d="M24.1523 50.91C20.2686 48.7642 17.3727 45.1754 16.083 40.91C18.1755 41.7278 20.0201 43.08 21.4351 44.8336C22.8501 46.5871 23.7866 48.6814 24.1523 50.91Z" fill="#50D9D7"/>
<path d="M11.4023 64C17.4396 64 22.3339 59.0751 22.3339 53C22.3339 46.9249 17.4396 42 11.4023 42C5.36494 42 0.470703 46.9249 0.470703 53C0.470703 59.0751 5.36494 64 11.4023 64Z" fill="white"/>
<path d="M24.2518 54.3C24.1881 54.9756 24.0684 55.6446 23.8941 56.3C20.5338 54.8953 17.5751 52.6688 15.2861 49.8225C12.9972 46.9762 11.4505 43.5999 10.7861 40C11.4491 39.9629 12.1141 39.983 12.7737 40.06C13.4252 43.1804 14.8062 46.0997 16.8023 48.576C18.7984 51.0524 21.3521 53.0146 24.2518 54.3Z" fill="#F3F3F3"/>
<path d="M11.4024 61C15.7932 61 19.3527 57.4183 19.3527 53C19.3527 48.5817 15.7932 45 11.4024 45C7.0116 45 3.45215 48.5817 3.45215 53C3.45215 57.4183 7.0116 61 11.4024 61Z" fill="#FFAC00"/>
<path d="M15.3772 54.71L14.3834 53.71C14.2549 53.5832 14.0946 53.4939 13.9195 53.4516C13.7445 53.4093 13.5614 53.4157 13.3896 53.47L11.8095 54L10.4083 52.59L10.9151 51.05C10.9691 50.8772 10.9754 50.6929 10.9334 50.5168C10.8914 50.3407 10.8027 50.1793 10.6766 50.05L9.68284 49.05C8.42074 47.7 6.20461 51.19 8.30149 53.29L11.1139 56.12C13.1909 58.2199 16.6791 56.07 15.3772 54.71Z" fill="white"/>
</svg>
